<svg xmlns="http://www.w3.org/2000/svg" viewBox="0 0 619.25 571.33"><defs><style>.cls-1{fill:#550309;}</style></defs><g id="Layer_2" data-name="Layer 2"><g id="Layer_1-2" data-name="Layer 1"><path class="cls-1" d="M156.3,59.56c-1.52-1.91,0-3.47,1.25-4.78,3.63-3.89,7.34-7.71,11-11.53q18.93-19.51,37.85-39C209.09,1.47,212-.53,217.7.13c9.27.9,20.19,2,31.11,3,1.75.18,4.08-.13,4.42,2.26.31,2.19-1.81,2.95-3.37,3.84C236.58,16.82,223.28,24.34,210,31.94q-23.11,13.25-46.18,26.62c-.72.41-1.43.84-2.16,1.25C159.84,60.84,157.84,61.5,156.3,59.56Z"/><path class="cls-1" d="M311.22,399.59c-8.56,32.28-25.44,58.43-55.81,74.19C232,485.92,207.13,487.46,181.52,483c-23.46-4.13-46.17-11.29-69.26-16.93-23.46-5.74-47.09-8.89-71.17-4.67C29,463.47,17.61,467.46,8,475.48c-2.09,1.74-4.63,3.67-7,1.22s-.06-4.6,1.53-6.52A46.54,46.54,0,0,1,21.17,456.4c6.16-2.49,12.4-4.85,18.76-6.71,12.58-3.67,19.45-12,21.58-24.71,1.85-11.05,2.08-22.18,2.28-33.33.17-9.48.14-19,.23-28.45.25-25.84,20.2-45.17,43.45-51.48,4.2-1.14,3.81,1.77,3.82,4.29q0,23.72,0,47.44v15h0c0,20.48.13,40.95-.1,61.42,0,4.77,1.71,6.56,6.24,7.7,18.54,4.67,36.71,10.75,55.5,14.41,30.65,6,60.33,4.28,87.9-12,22.09-13,37.57-31.45,44.55-56.48a23.37,23.37,0,0,1,1-3.33c.74-1.7,2.1-2.68,4-2.17a3.28,3.28,0,0,1,2.52,3.82A65,65,0,0,1,311.22,399.59Z"/><path class="cls-1" d="M64.24,288.55c-.65-46.6.33-93.21-.69-139.81-.22-10.15-1.08-20.27-3.85-30.12C55.59,104.05,44.55,95,29.42,93.78c-2.65-.21-5.32-.37-7.94-.79a3.34,3.34,0,0,1-3-3.43c0-2.19,1.43-3.29,3.41-3.62a22.51,22.51,0,0,1,3.49-.06H158.19q65.67,0,131.34,0c8,0,8.19.09,9,7.81C300.74,115.86,303,138,305,160.24c.27,2.94,2.14,7.44-2.84,8.18-4.83.73-4.52-3.82-5.23-6.91-8-34.86-29.29-53.84-66.89-59.64a206.81,206.81,0,0,0-31.83-2.26c-26.8,0-53.6.12-80.4,0-4.73,0-6.51,1.59-6.5,6.37q.12,80.4-.06,160.79c0,3.37,1,4.8,4.54,4.75,23-.34,45.94.51,68.9-.55,3.49-.16,7-.55,10.43-1,18.86-2.59,30.16-13.49,34.59-31.79.6-2.5,1-5.21,4.44-4.82s3.07,3.36,3.07,5.8q0,40.19,0,80.39c0,2.27-.07,4.63-2.91,4.94s-3.61-1.86-3.89-4.17c-2.34-19.27-15.44-32.62-37.8-34.43-26.47-2.15-52.93-2.44-79,3.79-27.1,6.5-51.66,18.07-69.71,40.09C27.24,350.06,20.16,373,28.78,399.09a51.38,51.38,0,0,0,11.91,19.4C42.11,420,44.27,421.8,42,424c-2.09,2-3.72-.35-5.08-1.52C23.36,410.75,16.83,395.61,16.4,378c-.81-33.08,15.24-57.46,41.1-76.13C62.55,298.26,64.32,294.7,64.24,288.55Z"/><path class="cls-1" d="M618.83,373.77C615,312.26,587.66,264.6,534.59,232.43c-33.9-20.54-71.36-29.18-110.41-30.51-34.93-1.18-69.91-.48-104.87-.61-5.17,0-10.33,0-15.49,0-2.26,0-4.18.72-4.19,3.18s1.79,3.33,4.08,3.44,4.64.39,7,.55c16,1.09,26.09,9.58,29.83,25.34,2.94,12.4,3.33,25.08,3.34,37.72q.13,116.36,0,232.72c0,11-.46,22-2.63,32.8-3.31,16.47-11.49,24.11-28.21,26.25a135.11,135.11,0,0,1-13.94.86c-2.84.07-5.31.84-5.37,3.86s2.56,3.45,5.1,3.32c.83,0,1.66,0,2.49,0H371.7c15.32,0,30.63,0,45.95,0,16.51,0,33-.9,49.19-4.05,55-10.68,98.46-38.46,127.3-87.13C613.52,447.41,621.21,411.66,618.83,373.77Zm-76,114.13c-24.15,46.93-64.67,70.58-117.39,73-7.81.36-15.65.11-23.47,0-5.93-.09-7.68-1.63-8.58-7.48a221.51,221.51,0,0,1-2.36-33.84q0-70.67,0-141.33h0V220.44c0-7.27.58-7.68,8-7.91,25.25-.79,49.84,2.31,73.23,12.36,36.84,15.82,63.18,42.59,77.91,79.51C574.93,366.38,573.48,428.39,542.86,487.9Z"/></g></g></svg>